<svg xmlns="http://www.w3.org/2000/svg" xmlns:xlink="http://www.w3.org/1999/xlink" width="93" height="114.69" viewBox="0 0 93 114.69">
  <defs>
    <linearGradient id="linear-gradient" x1="1.067" y1="0.251" x2="-0.075" y2="0.234" gradientUnits="objectBoundingBox">
      <stop offset="0" stop-color="#fff"/>
      <stop offset="1" stop-color="#d5d3d3"/>
    </linearGradient>
    <linearGradient id="linear-gradient-2" x1="1.176" y1="0.418" x2="0.469" y2="0.425" gradientUnits="objectBoundingBox">
      <stop offset="0" stop-color="#009fff"/>
      <stop offset="1" stop-color="#1e6b8d"/>
    </linearGradient>
  </defs>
  <g id="Group_16" data-name="Group 16" transform="translate(-148.5 -297.655)">
    <path id="ic_done_all_24px" d="M63.961,10.684,58.867,5.59,35.961,28.5l5.094,5.094ZM79.28,5.59,41.055,43.815l-15.1-15.066-5.094,5.094,20.2,20.2L84.41,10.684ZM.41,33.843l20.2,20.2L25.7,48.945,5.54,28.749Z" transform="translate(149.59 306.961)" fill="#1e6b8d"/>
    <g id="Group_2" data-name="Group 2" transform="translate(-179.06 242.379) rotate(-48)">
      <g id="Group_1" data-name="Group 1" transform="translate(166.922 299.898)">
        <g id="Rectangle_1" data-name="Rectangle 1" transform="translate(0)" stroke="#fff" stroke-width="5" fill="url(#linear-gradient)">
          <rect width="28.726" height="79.102" rx="14.363" stroke="none"/>
          <rect x="2.5" y="2.5" width="23.726" height="74.102" rx="11.863" fill="none"/>
        </g>
        <g id="Rectangle_2" data-name="Rectangle 2" transform="translate(0 34.1)" stroke="#fff" stroke-width="5" fill="url(#linear-gradient-2)">
          <path d="M5.745,0H22.981a5.745,5.745,0,0,1,5.745,5.745V30.64A14.363,14.363,0,0,1,14.363,45h0A14.363,14.363,0,0,1,0,30.64V5.745A5.745,5.745,0,0,1,5.745,0Z" stroke="none"/>
          <path d="M7.209,2.5H21.516a4.709,4.709,0,0,1,4.709,4.709V30.64A11.863,11.863,0,0,1,14.363,42.5h0A11.863,11.863,0,0,1,2.5,30.64V7.209A4.709,4.709,0,0,1,7.209,2.5Z" fill="none"/>
        </g>
      </g>
    </g>
    <text id="iDrug" transform="translate(148.5 401.345)" fill="#171717" font-size="32" font-family="LeagueSpartan-Bold, League Spartan" font-weight="700"><tspan x="0" y="0">iDrug</tspan></text>
  </g>
</svg>
