<svg xmlns="http://www.w3.org/2000/svg" xmlns:xlink="http://www.w3.org/1999/xlink" width="126.463" height="46.091" viewBox="0 0 126.463 46.091">
  <defs>
    <linearGradient id="linear-gradient" x1="1.067" y1="0.251" x2="-0.075" y2="0.234" gradientUnits="objectBoundingBox">
      <stop offset="0" stop-color="#fff"/>
      <stop offset="1" stop-color="#d5d3d3"/>
    </linearGradient>
    <linearGradient id="linear-gradient-2" x1="1.176" y1="0.418" x2="0.469" y2="0.425" gradientUnits="objectBoundingBox">
      <stop offset="0" stop-color="#009fff"/>
      <stop offset="1" stop-color="#1e6b8d"/>
    </linearGradient>
  </defs>
  <g id="Group_18" data-name="Group 18" transform="translate(-263.997 -50.312)">
    <g id="Group_10" data-name="Group 10" transform="translate(263.997 50.312)">
      <path id="ic_done_all_24px" d="M39.845,8.751,36.684,5.59,22.47,19.8l3.161,3.161ZM49.35,5.59,25.631,29.309,16.26,19.961,13.1,23.122,25.631,35.654l26.9-26.9ZM.41,23.122,12.942,35.654,16.1,32.493,3.593,19.961Z" transform="translate(-0.41 3.653)" fill="#fff"/>
      <g id="Group_2" data-name="Group 2" transform="translate(3.413 13.247) rotate(-48)">
        <g id="Group_1" data-name="Group 1" transform="translate(0 0)">
          <g id="Rectangle_1" data-name="Rectangle 1" transform="translate(0)" stroke="#fff" stroke-width="5" fill="url(#linear-gradient)">
            <rect width="17.825" height="49.085" rx="8.913" stroke="none"/>
            <rect x="2.5" y="2.5" width="12.825" height="44.085" rx="6.413" fill="none"/>
          </g>
          <g id="Rectangle_2" data-name="Rectangle 2" transform="translate(0 21.16)" stroke="#fff" stroke-width="5" fill="url(#linear-gradient-2)">
            <path d="M3.565,0h10.7a3.565,3.565,0,0,1,3.565,3.565V19.013a8.913,8.913,0,0,1-8.913,8.913h0A8.913,8.913,0,0,1,0,19.013V3.565A3.565,3.565,0,0,1,3.565,0Z" stroke="none"/>
            <path d="M5.046,2.5h7.734a2.546,2.546,0,0,1,2.546,2.546V19.013a6.413,6.413,0,0,1-6.413,6.413h0A6.413,6.413,0,0,1,2.5,19.013V5.046A2.546,2.546,0,0,1,5.046,2.5Z" fill="none"/>
          </g>
        </g>
      </g>
    </g>
    <text id="iDrug" transform="translate(335.46 77.679)" fill="#fff" font-size="19" font-family="LeagueSpartan-Bold, League Spartan" font-weight="700"><tspan x="0" y="0">iDrug</tspan></text>
  </g>
</svg>
