<svg xmlns="http://www.w3.org/2000/svg" xmlns:xlink="http://www.w3.org/1999/xlink" width="179.114" height="60.18" viewBox="0 0 179.114 60.18">
  <defs>
    <linearGradient id="linear-gradient" x1="1.067" y1="0.251" x2="-0.075" y2="0.234" gradientUnits="objectBoundingBox">
      <stop offset="0" stop-color="#fff"/>
      <stop offset="1" stop-color="#d5d3d3"/>
    </linearGradient>
    <linearGradient id="linear-gradient-2" x1="1.176" y1="0.418" x2="0.469" y2="0.425" gradientUnits="objectBoundingBox">
      <stop offset="0" stop-color="#009fff"/>
      <stop offset="1" stop-color="#1e6b8d"/>
    </linearGradient>
  </defs>
  <g id="Group_17" data-name="Group 17" transform="translate(-291.943 -185.91)">
    <g id="Group_10" data-name="Group 10" transform="translate(291.943 185.91)">
      <path id="ic_done_all_24px" d="M51.9,9.717,47.772,5.59,29.213,24.148l4.127,4.127ZM64.31,5.59,33.341,36.56,21.105,24.353l-4.127,4.127L33.341,44.844,68.467,9.717ZM.41,28.481,16.773,44.844,20.9,40.716,4.567,24.353Z" transform="translate(-0.41 6.479)" fill="#1e6b8d"/>
      <g id="Group_2" data-name="Group 2" transform="translate(4.456 17.296) rotate(-48)">
        <g id="Group_1" data-name="Group 1" transform="translate(0 0)">
          <g id="Rectangle_1" data-name="Rectangle 1" transform="translate(0 0)" stroke="#fff" stroke-width="5" fill="url(#linear-gradient)">
            <rect width="23.274" height="64.089" rx="11.637" stroke="none"/>
            <rect x="2.5" y="2.5" width="18.274" height="59.089" rx="9.137" fill="none"/>
          </g>
          <g id="Rectangle_2" data-name="Rectangle 2" transform="translate(0 27.628)" stroke="#fff" stroke-width="5" fill="url(#linear-gradient-2)">
            <path d="M4.655,0H18.619a4.655,4.655,0,0,1,4.655,4.655v20.17A11.637,11.637,0,0,1,11.637,36.461h0A11.637,11.637,0,0,1,0,24.824V4.655A4.655,4.655,0,0,1,4.655,0Z" stroke="none"/>
            <path d="M6.127,2.5H17.147a3.627,3.627,0,0,1,3.627,3.627v18.7a9.137,9.137,0,0,1-9.137,9.137h0A9.137,9.137,0,0,1,2.5,24.824V6.127A3.627,3.627,0,0,1,6.127,2.5Z" fill="none"/>
          </g>
        </g>
      </g>
    </g>
    <text id="iDrug" transform="translate(381.057 224.91)" fill="#1e6b8d" font-size="31" font-family="LeagueSpartan-Bold, League Spartan" font-weight="700"><tspan x="0" y="0">iDrug</tspan></text>
  </g>
</svg>
